<svg width="53" height="35" viewBox="0 0 53 35" fill="none" xmlns="http://www.w3.org/2000/svg">
<path d="M6.8 25.13L0.71 18.5L6.8 11.87H13.25L7.13 18.5L13.25 25.13H6.8ZM28.8734 0.679998L20.7134 34.25H17.3534L25.4834 0.679998H28.8734ZM34.5636 29.21C33.9436 29.21 33.4236 29 33.0036 28.58C32.5836 28.16 32.3736 27.64 32.3736 27.02C32.3736 26.4 32.5836 25.88 33.0036 25.46C33.4236 25.04 33.9436 24.83 34.5636 24.83C35.1636 24.83 35.6736 25.04 36.0936 25.46C36.5136 25.88 36.7236 26.4 36.7236 27.02C36.7236 27.64 36.5136 28.16 36.0936 28.58C35.6736 29 35.1636 29.21 34.5636 29.21ZM40.0599 11.87H46.5099L52.5999 18.5L46.5099 25.13H40.0599L46.1799 18.5L40.0599 11.87Z" fill="black"/>
</svg>