<svg width="125" height="24" viewBox="0 0 125 24" fill="none" xmlns="http://www.w3.org/2000/svg">
<path d="M0.11 12.53C0.11 10.49 0.58 8.66 1.52 7.04C2.48 5.42 3.77 4.16 5.39 3.26C7.03 2.34 8.82 1.88 10.76 1.88C12.98 1.88 14.95 2.43 16.67 3.53C18.41 4.61 19.67 6.15 20.45 8.15H16.34C15.8 7.05 15.05 6.23 14.09 5.69C13.13 5.15 12.02 4.88 10.76 4.88C9.38 4.88 8.15 5.19 7.07 5.81C5.99 6.43 5.14 7.32 4.52 8.48C3.92 9.64 3.62 10.99 3.62 12.53C3.62 14.07 3.92 15.42 4.52 16.58C5.14 17.74 5.99 18.64 7.07 19.28C8.15 19.9 9.38 20.21 10.76 20.21C12.02 20.21 13.13 19.94 14.09 19.4C15.05 18.86 15.8 18.04 16.34 16.94H20.45C19.67 18.94 18.41 20.48 16.67 21.56C14.95 22.64 12.98 23.18 10.76 23.18C8.8 23.18 7.01 22.73 5.39 21.83C3.77 20.91 2.48 19.64 1.52 18.02C0.58 16.4 0.11 14.57 0.11 12.53ZM33.0031 6.2C34.2631 6.2 35.3831 6.47 36.3631 7.01C37.3631 7.55 38.1431 8.35 38.7031 9.41C39.2831 10.47 39.5731 11.75 39.5731 13.25V23H36.1831V13.76C36.1831 12.28 35.8131 11.15 35.0731 10.37C34.3331 9.57 33.3231 9.17 32.0431 9.17C30.7631 9.17 29.7431 9.57 28.9831 10.37C28.2431 11.15 27.8731 12.28 27.8731 13.76V23H24.4531V0.8H27.8731V8.39C28.4531 7.69 29.1831 7.15 30.0631 6.77C30.9631 6.39 31.9431 6.2 33.0031 6.2ZM42.7955 14.66C42.7955 13 43.1355 11.53 43.8155 10.25C44.5155 8.97 45.4555 7.98 46.6355 7.28C47.8355 6.56 49.1555 6.2 50.5955 6.2C51.8955 6.2 53.0255 6.46 53.9855 6.98C54.9655 7.48 55.7455 8.11 56.3255 8.87V6.47H59.7755V23H56.3255V20.54C55.7455 21.32 54.9555 21.97 53.9555 22.49C52.9555 23.01 51.8155 23.27 50.5355 23.27C49.1155 23.27 47.8155 22.91 46.6355 22.19C45.4555 21.45 44.5155 20.43 43.8155 19.13C43.1355 17.81 42.7955 16.32 42.7955 14.66ZM56.3255 14.72C56.3255 13.58 56.0855 12.59 55.6055 11.75C55.1455 10.91 54.5355 10.27 53.7755 9.83C53.0155 9.39 52.1955 9.17 51.3155 9.17C50.4355 9.17 49.6155 9.39 48.8555 9.83C48.0955 10.25 47.4755 10.88 46.9955 11.72C46.5355 12.54 46.3055 13.52 46.3055 14.66C46.3055 15.8 46.5355 16.8 46.9955 17.66C47.4755 18.52 48.0955 19.18 48.8555 19.64C49.6355 20.08 50.4555 20.3 51.3155 20.3C52.1955 20.3 53.0155 20.08 53.7755 19.64C54.5355 19.2 55.1455 18.56 55.6055 17.72C56.0855 16.86 56.3255 15.86 56.3255 14.72ZM68.2576 9.26V18.41C68.2576 19.03 68.3976 19.48 68.6776 19.76C68.9776 20.02 69.4776 20.15 70.1776 20.15H72.2776V23H69.5776C68.0376 23 66.8576 22.64 66.0376 21.92C65.2176 21.2 64.8076 20.03 64.8076 18.41V9.26H62.8576V6.47H64.8076V2.36H68.2576V6.47H72.2776V9.26H68.2576ZM105.183 2.15V23H101.763V8.72L95.4027 23H93.0327L86.6427 8.72V23H83.2227V2.15H86.9127L94.2327 18.5L101.523 2.15H105.183ZM124.828 14.33C124.828 14.95 124.788 15.51 124.708 16.01H112.078C112.178 17.33 112.668 18.39 113.548 19.19C114.428 19.99 115.508 20.39 116.788 20.39C118.628 20.39 119.928 19.62 120.688 18.08H124.378C123.878 19.6 122.968 20.85 121.648 21.83C120.348 22.79 118.728 23.27 116.788 23.27C115.208 23.27 113.788 22.92 112.528 22.22C111.288 21.5 110.308 20.5 109.588 19.22C108.888 17.92 108.538 16.42 108.538 14.72C108.538 13.02 108.878 11.53 109.558 10.25C110.258 8.95 111.228 7.95 112.468 7.25C113.728 6.55 115.168 6.2 116.788 6.2C118.348 6.2 119.738 6.54 120.958 7.22C122.178 7.9 123.128 8.86 123.808 10.1C124.488 11.32 124.828 12.73 124.828 14.33ZM121.258 13.25C121.238 11.99 120.788 10.98 119.908 10.22C119.028 9.46 117.938 9.08 116.638 9.08C115.458 9.08 114.448 9.46 113.608 10.22C112.768 10.96 112.268 11.97 112.108 13.25H121.258Z" fill="black"/>
</svg>